<svg id="Layer_1" data-name="Layer 1" xmlns="http://www.w3.org/2000/svg" viewBox="0 0 47.63 18.78"><defs><style>.cls-1{fill:#db4010;}.cls-2{fill:#e17b71;}.cls-3{fill:#223097;}.cls-4{fill:#858584;}</style></defs><polygon class="cls-1" points="32.98 3 37.95 6.01 39.72 4.91 35.08 2.1 32.98 3"/><polygon class="cls-2" points="36.17 4.9 37.95 6.01 47.63 0 36.17 4.9"/><path class="cls-3" d="M32.88,4.93V6.85a3.41,3.41,0,0,0-2.73-1.37A4.26,4.26,0,0,0,26,10.07a4.3,4.3,0,0,0,4.1,4.59,3.44,3.44,0,0,0,2.76-1.43v1.11a2.51,2.51,0,0,1-4.78,1.26l-1.55,1a4.21,4.21,0,0,0,3.93,2.22c2.63,0,4.14-1.91,4.14-4.51V6Zm-2.5,8a2.72,2.72,0,0,1-2.59-2.88,2.61,2.61,0,1,1,5.19,0,2.71,2.71,0,0,1-2.6,2.88"/><polygon class="cls-3" points="36.17 14.49 37.95 14.49 37.95 8.07 36.17 6.97 36.17 14.49"/><path class="cls-3" d="M45.88,3.15V6.86a3.4,3.4,0,0,0-2.73-1.38A4.26,4.26,0,0,0,39,10.07a4.3,4.3,0,0,0,4.1,4.59,3.42,3.42,0,0,0,2.74-1.41l.67,1.24h1.08V2.07Zm-2.5,9.78a2.72,2.72,0,0,1-2.59-2.88,2.61,2.61,0,1,1,5.19,0,2.71,2.71,0,0,1-2.6,2.88"/><path class="cls-3" d="M24.2,6.47a3.19,3.19,0,0,0-2.55-1,3.08,3.08,0,0,0-2.78,1.59,2.75,2.75,0,0,0-1-1.17,3.14,3.14,0,0,0-1.67-.42,3.05,3.05,0,0,0-1.41.32,2.84,2.84,0,0,0-1,.91l-.57-1.06H12v8.84h1.76V9.57a2.61,2.61,0,0,1,.57-1.83,1.85,1.85,0,0,1,1.43-.62,1.74,1.74,0,0,1,1.38.56,2.31,2.31,0,0,1,.48,1.54v5.27H19.4v-5A2.5,2.5,0,0,1,20,7.72a1.82,1.82,0,0,1,1.39-.6,1.76,1.76,0,0,1,1.43.59,2.48,2.48,0,0,1,.48,1.6v5.18h1.79V9.19a4,4,0,0,0-.85-2.72"/><path class="cls-4" d="M.66,13.75h0v.74H0V8.31H.68v2.81h0a1.66,1.66,0,0,1,1.45-.77,2,2,0,0,1,2,2.12,2,2,0,0,1-2,2.07A1.68,1.68,0,0,1,.66,13.75Zm2.78-1.28A1.41,1.41,0,0,0,2,11a1.41,1.41,0,0,0-1.39,1.5,1.38,1.38,0,0,0,1.4,1.45A1.37,1.37,0,0,0,3.44,12.47Z"/><path class="cls-4" d="M6.18,14.33,4.45,10.4h.74l1.32,3.11h0L7.76,10.4h.71L6.16,16.15H5.45Z"/></svg>